<?xml version="1.0" encoding="utf-8"?>
<!-- Generator: Adobe Illustrator 18.1.1, SVG Export Plug-In . SVG Version: 6.00 Build 0)  -->
<svg version="1.1" id="Layer_1" xmlns="http://www.w3.org/2000/svg" xmlns:xlink="http://www.w3.org/1999/xlink" x="0px" y="0px"
	 width="29px" height="37.7724609px" viewBox="-485 279.7275391 29 37.7724609"
	 enable-background="new -485 279.7275391 29 37.7724609" xml:space="preserve">
<title>Icon-Market-research</title>
<desc>Created with Sketch.</desc>
<g>
	<path fill="#FD433E" d="M-458.5,286.519043h-1v-0.5c0-0.6572266,0-1.3369141-0.0507812-1.9589844l-0.0410156-0.4985352
		l0.9960938-0.081543l0.0410156,0.4980469C-458.5,284.6411133-458.5,285.3417969-458.5,286.019043V286.519043z
		 M-473.0610352,285.1484375l-0.5-0.0024414c-0.7856445-0.003418-1.4995117-0.1088867-2.1210938-0.3134766l-0.4750977-0.1567383
		l0.3129883-0.949707l0.4746094,0.15625c0.5219727,0.171875,1.1323242,0.2607422,1.8134766,0.2636719l0.5,0.0024414
		L-473.0610352,285.1484375z M-470.9038086,284.7441406l-0.3862305-0.9223633l0.4614258-0.1933594
		c0.5336914-0.2231445,1.0532227-0.5200195,1.6362305-0.9331055l0.4072266-0.2895508l0.5791016,0.8154297l-0.4082031,0.2895508
		c-0.6435547,0.4570312-1.2246094,0.7875977-1.8286133,1.0405273L-470.9038086,284.7441406z M-477.987793,283.1948242
		l-0.2431641-0.4370117c-0.3251953-0.5844727-0.5498047-1.2788086-0.6669922-2.0644531l-0.0737305-0.4946289l0.9892578-0.1474609
		l0.0737305,0.4946289c0.0991211,0.6660156,0.2851562,1.246582,0.5517578,1.7255859l0.2431641,0.4370117L-477.987793,283.1948242z
		 M-466.6494141,281.9838867l-0.5605469-0.828125l0.4140625-0.2802734c0.6738281-0.456543,1.2832031-0.7578125,1.9179688-0.9492188
		l0.4794922-0.144043l0.2880859,0.9580078l-0.4785156,0.144043c-0.5361328,0.1606445-1.0585938,0.4213867-1.6464844,0.8193359
		L-466.6494141,281.9838867z M-460.0605469,281.9536133l-0.3417969-0.3652344
		c-0.3564453-0.3813477-0.8398438-0.6352539-1.4775391-0.7763672l-0.4882812-0.1079102l0.2167969-0.9765625l0.4882812,0.1079102
		c0.8291016,0.1835938,1.4990234,0.543457,1.9912109,1.0703125l0.3417969,0.3647461L-460.0605469,281.9536133z"/>
</g>
<path display="none" fill="none" stroke="#FD433E" stroke-linecap="square" stroke-miterlimit="10" stroke-dasharray="2,3" d="
	M-459,286.0189514c0-2.9174805,0-5.8349915-4.1942139-5.8349915c-4.1942444,0-5.1685791,4.4620667-10.3240356,4.4620667
	c-5.1554871,0-4.9810486-4.5163879-4.9810486-5.8349915"/>
<path fill="none" stroke="#FD433E" stroke-miterlimit="10" d="M-461.4811401,305.5614624V291c0-0.5522766,0.4477234-1,1-1H-457.5
	c0.5522766,0,1,0.4477234,1,1v16.7903442V317h-28v-18.9396362c0-0.5523071,0.4477234-1,1-1
	c0.2244568,0,0.4423523,0.0755005,0.6186829,0.2143555L-473.5,304.6625061v-6.5891113c0-0.5523071,0.4477234-1,1-1
	c0.2261353,0,0.4455872,0.0766296,0.6225586,0.2174072L-461.4811401,305.5614624z"/>
</svg>
