<?xml version="1.0" encoding="utf-8"?>
<!-- Generator: Adobe Illustrator 18.1.1, SVG Export Plug-In . SVG Version: 6.00 Build 0)  -->
<svg version="1.1" id="Layer_1" xmlns="http://www.w3.org/2000/svg" xmlns:xlink="http://www.w3.org/1999/xlink" x="0px" y="0px"
	 width="36px" height="36px" viewBox="-481 283 36 36" enable-background="new -481 283 36 36" xml:space="preserve">
<title>Icon-5</title>
<desc>Created with Sketch.</desc>
<g id="Case-Study---Debenhams">
	<g id="Desktop-HD" transform="translate(-651.000000, -2149.000000)">
		<g id="Icon-5" transform="translate(652.000000, 2150.000000)">
			<g id="Oval-Copy-5">
				<g>
					<path fill="#FD433E" d="M-464,318c-9.925293,0-18-8.0751953-18-18c0-9.925293,8.074707-18,18-18c9.9248047,0,18,8.074707,18,18
						C-446,309.9248047-454.0751953,318-464,318z M-464,283c-9.3740234,0-17,7.6259766-17,17s7.6259766,17,17,17s17-7.6259766,17-17
						S-454.6259766,283-464,283z"/>
				</g>
			</g>
		</g>
	</g>
</g>
<g enable-background="new    ">
	<path fill="#FD433E" d="M-460.1738281,296.6875h-4.3676758l-0.2797852,3.7382812h0.0976562
		c0.2426758-0.3271484,0.5131836-0.5859375,0.8120117-0.7773438s0.7094727-0.2871094,1.2319336-0.2871094
		c0.4291992,0,0.8242188,0.0683594,1.1835938,0.203125c0.359375,0.1357422,0.6689453,0.3339844,0.9306641,0.5947266
		c0.2607422,0.2617188,0.4658203,0.5771484,0.6162109,0.9453125c0.1484375,0.3691406,0.2236328,0.7910156,0.2236328,1.2666016
		c0,0.4765625-0.0751953,0.9130859-0.2236328,1.3095703c-0.1503906,0.3964844-0.3691406,0.7373047-0.6582031,1.0214844
		c-0.2890625,0.2851562-0.6396484,0.5068359-1.0507812,0.6650391c-0.4101562,0.1591797-0.8764648,0.2382812-1.3994141,0.2382812
		c-0.4106445,0-0.7768555-0.046875-1.0991211-0.1396484c-0.3217773-0.09375-0.6064453-0.2197266-0.8540039-0.3779297
		c-0.2470703-0.1591797-0.4643555-0.3359375-0.6508789-0.5322266s-0.3544922-0.4013672-0.5039062-0.6162109l0.8818359-0.671875
		c0.1308594,0.1962891,0.2636719,0.3730469,0.3994141,0.5322266c0.1347656,0.1582031,0.2915039,0.2958984,0.46875,0.4130859
		c0.1772461,0.1162109,0.3779297,0.2070312,0.6020508,0.2724609s0.4853516,0.0986328,0.7841797,0.0986328
		c0.671875,0,1.1875-0.1826172,1.546875-0.546875c0.359375-0.3632812,0.5390625-0.8671875,0.5390625-1.5117188v-0.1123047
		c0-0.6435547-0.1816406-1.1474609-0.5458984-1.5117188s-0.887207-0.5458984-1.5683594-0.5458984
		c-0.4667969,0-0.828125,0.0791016-1.0849609,0.2382812c-0.2568359,0.1582031-0.4921875,0.3544922-0.7070312,0.5878906
		l-0.9936523-0.140625l0.3496094-5.3759766h5.3198242V296.6875z"/>
</g>
</svg>
