<?xml version="1.0" encoding="utf-8"?>
<!-- Generator: Adobe Illustrator 18.1.1, SVG Export Plug-In . SVG Version: 6.00 Build 0)  -->
<svg version="1.1" id="Layer_1" xmlns="http://www.w3.org/2000/svg" xmlns:xlink="http://www.w3.org/1999/xlink" x="0px" y="0px"
	 width="36px" height="36px" viewBox="-481 283 36 36" enable-background="new -481 283 36 36" xml:space="preserve">
<title>1</title>
<desc>Created with Sketch.</desc>
<g id="Case-Study---Debenhams">
	<g id="Desktop-HD" transform="translate(-651.000000, -2149.000000)">
		<g id="Icon-5" transform="translate(652.000000, 2150.000000)">
			<g id="Oval-Copy-5">
				<g>
					<path fill="#FD433E" d="M-464,318c-9.925293,0-18-8.0751953-18-18c0-9.925293,8.074707-18,18-18c9.9248047,0,18,8.074707,18,18
						C-446,309.9248047-454.0751953,318-464,318z M-464,283c-9.3740234,0-17,7.6259766-17,17s7.6259766,17,17,17s17-7.6259766,17-17
						S-454.6259766,283-464,283z"/>
				</g>
			</g>
		</g>
	</g>
</g>
<g enable-background="new    ">
	<path fill="#FD433E" d="M-465.9975586,305.4375v-1.0224609h2.800293v-7.8818359h-0.0981445l-2.4638672,2.2958984
		l-0.6860352-0.7412109l2.5898438-2.4228516h1.8339844v8.75h2.5761719V305.4375H-465.9975586z"/>
</g>
</svg>
