<?xml version="1.0" encoding="utf-8"?>
<!-- Generator: Adobe Illustrator 18.1.1, SVG Export Plug-In . SVG Version: 6.00 Build 0)  -->
<svg version="1.1" id="Layer_1" xmlns="http://www.w3.org/2000/svg" xmlns:xlink="http://www.w3.org/1999/xlink" x="0px" y="0px"
	 width="36px" height="36px" viewBox="-481 283 36 36" enable-background="new -481 283 36 36" xml:space="preserve">
<title>Icon-4</title>
<desc>Created with Sketch.</desc>
<g id="Case-Study---Debenhams_1_">
	<g id="Desktop-HD_1_" transform="translate(-651.000000, -2149.000000)">
		<g id="Icon-5" transform="translate(652.000000, 2150.000000)">
			<g id="Oval-Copy-5">
				<path fill="#FD433E" d="M-464,318c-9.925293,0-18-8.0751953-18-18c0-9.925293,8.074707-18,18-18c9.9248047,0,18,8.074707,18,18
					C-446,309.9248047-454.0751953,318-464,318z M-464,283c-9.3740234,0-17,7.6259766-17,17s7.6259766,17,17,17s17-7.6259766,17-17
					S-454.6259766,283-464,283z"/>
			</g>
		</g>
	</g>
</g>
<g enable-background="new    ">
	<path fill="#FD433E" d="M-462.2080078,305.4375v-1.9179688h-4.815918v-1.0361328l4.2280273-6.8183594h1.7080078v6.8886719
		h1.4560547v0.9658203h-1.4560547V305.4375H-462.2080078z M-465.9741211,302.5537109h3.7661133v-5.9785156h-0.0561523
		L-465.9741211,302.5537109z"/>
</g>
</svg>
