<?xml version="1.0" encoding="utf-8"?>
<!-- Generator: Adobe Illustrator 18.1.1, SVG Export Plug-In . SVG Version: 6.00 Build 0)  -->
<svg version="1.1" id="Layer_1" xmlns="http://www.w3.org/2000/svg" xmlns:xlink="http://www.w3.org/1999/xlink" x="0px" y="0px"
	 width="49.5685005px" height="40.5559998px" viewBox="-473.9999084 280 49.5685005 40.5559998"
	 enable-background="new -473.9999084 280 49.5685005 40.5559998" xml:space="preserve">
<title>K-Logo</title>
<desc>Created with Sketch.</desc>
<path id="K-Logo" fill="#313131" d="M-471.7469177,289.0125122c1.2440186,0,2.2530212,1.0089722,2.2530212,2.2529907
	c0,1.243988-1.0090027,2.2529907-2.2530212,2.2529907c-1.243988,0-2.2529907-1.0090027-2.2529907-2.2529907
	C-473.9999084,290.0214844-472.9909058,289.0125122-471.7469177,289.0125122z M-471.7469177,298.0249939
	c1.2440186,0,2.2530212,1.0090027,2.2530212,2.2530212c0,1.243988-1.0090027,2.2529907-2.2530212,2.2529907
	c-1.243988,0-2.2529907-1.0090027-2.2529907-2.2529907C-473.9999084,299.0339966-472.9909058,298.0249939-471.7469177,298.0249939z
	 M-471.7469177,307.0375061c1.2440186,0,2.2530212,1.0090027,2.2530212,2.2529907s-1.0090027,2.2529907-2.2530212,2.2529907
	c-1.243988,0-2.2529907-1.0090027-2.2529907-2.2529907S-472.9909058,307.0375061-471.7469177,307.0375061z M-462.7344055,280
	c1.243988,0,2.2529907,1.0090027,2.2529907,2.2529907c0,1.2440186-1.0090027,2.2530212-2.2529907,2.2530212
	s-2.2529907-1.0090027-2.2529907-2.2530212C-464.9873962,281.0090027-463.9783936,280-462.7344055,280z M-462.7344055,289.0125122
	c1.243988,0,2.2529907,1.0089722,2.2529907,2.2529907c0,1.243988-1.0090027,2.2529907-2.2529907,2.2529907
	s-2.2529907-1.0090027-2.2529907-2.2529907C-464.9873962,290.0214844-463.9783936,289.0125122-462.7344055,289.0125122z
	 M-462.7344055,298.0249939c1.243988,0,2.2529907,1.0090027,2.2529907,2.2530212
	c0,1.243988-1.0090027,2.2529907-2.2529907,2.2529907s-2.2529907-1.0090027-2.2529907-2.2529907
	C-464.9873962,299.0339966-463.9783936,298.0249939-462.7344055,298.0249939z M-462.7344055,307.0375061
	c1.243988,0,2.2529907,1.0090027,2.2529907,2.2529907s-1.0090027,2.2529907-2.2529907,2.2529907
	s-2.2529907-1.0090027-2.2529907-2.2529907S-463.9783936,307.0375061-462.7344055,307.0375061z M-453.7219238,298.0249939
	c1.2440186,0,2.2530212,1.0090027,2.2530212,2.2530212c0,1.243988-1.0090027,2.2529907-2.2530212,2.2529907
	c-1.243988,0-2.2529907-1.0090027-2.2529907-2.2529907C-455.9749146,299.0339966-454.9659119,298.0249939-453.7219238,298.0249939z
	 M-471.7469177,316.0499878c1.2440186,0,2.2530212,1.0090027,2.2530212,2.2530212
	c0,1.243988-1.0090027,2.2529907-2.2530212,2.2529907c-1.243988,0-2.2529907-1.0090027-2.2529907-2.2529907
	C-473.9999084,317.0589905-472.9909058,316.0499878-471.7469177,316.0499878z M-462.7344055,316.0499878
	c1.243988,0,2.2529907,1.0090027,2.2529907,2.2530212c0,1.243988-1.0090027,2.2529907-2.2529907,2.2529907
	s-2.2529907-1.0090027-2.2529907-2.2529907C-464.9873962,317.0589905-463.9783936,316.0499878-462.7344055,316.0499878z
	 M-453.7219238,289.0125122c1.2440186,0,2.2530212,1.0089722,2.2530212,2.2529907
	c0,1.243988-1.0090027,2.2529907-2.2530212,2.2529907c-1.243988,0-2.2529907-1.0090027-2.2529907-2.2529907
	C-455.9749146,290.0214844-454.9659119,289.0125122-453.7219238,289.0125122z M-453.7219238,307.0375061
	c1.2440186,0,2.2530212,1.0090027,2.2530212,2.2529907s-1.0090027,2.2529907-2.2530212,2.2529907
	c-1.243988,0-2.2529907-1.0090027-2.2529907-2.2529907S-454.9659119,307.0375061-453.7219238,307.0375061z M-444.7094116,280
	c1.243988,0,2.2529907,1.0090027,2.2529907,2.2529907c0,1.2440186-1.0090027,2.2530212-2.2529907,2.2530212
	s-2.2529907-1.0090027-2.2529907-2.2530212C-446.9624023,281.0090027-445.9533997,280-444.7094116,280z M-444.7094116,289.0125122
	c1.243988,0,2.2529907,1.0089722,2.2529907,2.2529907c0,1.243988-1.0090027,2.2529907-2.2529907,2.2529907
	s-2.2529907-1.0090027-2.2529907-2.2529907C-446.9624023,290.0214844-445.9533997,289.0125122-444.7094116,289.0125122z
	 M-444.7094116,298.0249939c1.243988,0,2.2529907,1.0090027,2.2529907,2.2530212
	c0,1.243988-1.0090027,2.2529907-2.2529907,2.2529907s-2.2529907-1.0090027-2.2529907-2.2529907
	C-446.9624023,299.0339966-445.9533997,298.0249939-444.7094116,298.0249939z M-444.7094116,307.0375061
	c1.243988,0,2.2529907,1.0090027,2.2529907,2.2529907s-1.0090027,2.2529907-2.2529907,2.2529907
	s-2.2529907-1.0090027-2.2529907-2.2529907S-445.9533997,307.0375061-444.7094116,307.0375061z M-444.7094116,316.0499878
	c1.243988,0,2.2529907,1.0090027,2.2529907,2.2530212c0,1.243988-1.0090027,2.2529907-2.2529907,2.2529907
	s-2.2529907-1.0090027-2.2529907-2.2529907C-446.9624023,317.0589905-445.9533997,316.0499878-444.7094116,316.0499878z
	 M-435.6968994,280c1.243988,0,2.2529907,1.0090027,2.2529907,2.2529907c0,1.2440186-1.0090027,2.2530212-2.2529907,2.2530212
	c-1.2440186,0-2.2530212-1.0090027-2.2530212-2.2530212C-437.9499207,281.0090027-436.940918,280-435.6968994,280z
	 M-435.6968994,289.0125122c1.243988,0,2.2529907,1.0089722,2.2529907,2.2529907
	c0,1.243988-1.0090027,2.2529907-2.2529907,2.2529907c-1.2440186,0-2.2530212-1.0090027-2.2530212-2.2529907
	C-437.9499207,290.0214844-436.940918,289.0125122-435.6968994,289.0125122z M-435.6968994,307.0375061
	c1.243988,0,2.2529907,1.0090027,2.2529907,2.2529907s-1.0090027,2.2529907-2.2529907,2.2529907
	c-1.2440186,0-2.2530212-1.0090027-2.2530212-2.2529907S-436.940918,307.0375061-435.6968994,307.0375061z
	 M-435.6968994,316.0499878c1.243988,0,2.2529907,1.0090027,2.2529907,2.2530212
	c0,1.243988-1.0090027,2.2529907-2.2529907,2.2529907c-1.2440186,0-2.2530212-1.0090027-2.2530212-2.2529907
	C-437.9499207,317.0589905-436.940918,316.0499878-435.6968994,316.0499878z M-426.6844177,284.5061951
	c-1.243988,0-2.2529907-1.0090027-2.2529907-2.2529907c0-1.2440186,1.0090027-2.2529907,2.2529907-2.2529907
	c1.2440186,0,2.2530212,1.0089722,2.2530212,2.2529907C-424.4313965,283.4971924-425.4403992,284.5061951-426.6844177,284.5061951z
	 M-426.6844177,316.0499878c1.2440186,0,2.2530212,1.0090027,2.2530212,2.2530212
	c0,1.243988-1.0090027,2.2529907-2.2530212,2.2529907c-1.243988,0-2.2529907-1.0090027-2.2529907-2.2529907
	C-428.9374084,317.0589905-427.9284058,316.0499878-426.6844177,316.0499878z M-471.7469177,280
	c1.2440186,0,2.2530212,1.0090027,2.2530212,2.2529907c0,1.2440186-1.0090027,2.2530212-2.2530212,2.2530212
	c-1.243988,0-2.2529907-1.0090027-2.2529907-2.2530212C-473.9999084,281.0090027-472.9909058,280-471.7469177,280z"/>
</svg>
