<?xml version="1.0" encoding="utf-8"?>
<!-- Generator: Adobe Illustrator 18.1.1, SVG Export Plug-In . SVG Version: 6.00 Build 0)  -->
<svg version="1.1" id="Layer_1" xmlns="http://www.w3.org/2000/svg" xmlns:xlink="http://www.w3.org/1999/xlink" x="0px" y="0px"
	 width="44px" height="44px" viewBox="-476.5 278 44 44" enable-background="new -476.5 278 44 44" xml:space="preserve">
<title>Next-Project</title>
<desc>Created with Sketch.</desc>
<path fill="#FFFFFF" d="M-454.5,278c-12.1308594,0-22,9.8691406-22,22s9.8691406,22,22,22s22-9.8691406,22-22
	S-442.3691406,278-454.5,278z M-454.5,321c-11.5795898,0-21-9.4208984-21-21c0-11.5795898,9.4204102-21,21-21
	c11.5791016,0,21,9.4204102,21,21C-433.5,311.5791016-442.9208984,321-454.5,321z"/>
<polygon fill="#FFFFFF" points="-447.7070923,299.2929077 -454.0710449,292.9289551 -454.7781982,293.6360474 -448.9141846,299.5 
	-462,299.5 -462,300.5 -448.9141846,300.5 -454.7781982,306.3639526 -454.0710449,307.0710449 -447.7070923,300.7070923 -447,300 
	"/>
</svg>
