<?xml version="1.0" encoding="utf-8"?>
<!-- Generator: Adobe Illustrator 18.1.1, SVG Export Plug-In . SVG Version: 6.00 Build 0)  -->
<svg version="1.1" id="Layer_1" xmlns="http://www.w3.org/2000/svg" xmlns:xlink="http://www.w3.org/1999/xlink" x="0px" y="0px"
	 width="36px" height="36px" viewBox="-481 283 36 36" enable-background="new -481 283 36 36" xml:space="preserve">
<title>Icon-2</title>
<desc>Created with Sketch.</desc>
<g id="Case-Study---Debenhams">
	<g id="Desktop-HD" transform="translate(-651.000000, -2149.000000)">
		<g id="Icon-5" transform="translate(652.000000, 2150.000000)">
			<g id="Oval-Copy-5">
				<g>
					<path fill="#FD433E" d="M-464,318c-9.925293,0-18-8.0751953-18-18c0-9.925293,8.074707-18,18-18c9.9248047,0,18,8.074707,18,18
						C-446,309.9248047-454.0751953,318-464,318z M-464,283c-9.3740234,0-17,7.6259766-17,17s7.6259766,17,17,17s17-7.6259766,17-17
						S-454.6259766,283-464,283z"/>
				</g>
			</g>
		</g>
	</g>
</g>
<g enable-background="new    ">
	<path fill="#FD433E" d="M-459.6699219,305.4375h-6.5234375v-1.2041016l3.2617188-2.9394531
		c0.4760742-0.4296875,0.8681641-0.8710938,1.1757812-1.3232422c0.3085938-0.453125,0.4628906-0.9316406,0.4628906-1.4355469
		v-0.1679688c0-0.5878906-0.1542969-1.0429688-0.4628906-1.3642578c-0.3076172-0.3222656-0.7651367-0.4833984-1.371582-0.4833984
		c-0.5976562,0-1.0571289,0.1513672-1.3789062,0.4550781c-0.3222656,0.3037109-0.5625,0.7070312-0.7211914,1.2109375
		l-1.0498047-0.3916016c0.0932617-0.2900391,0.2216797-0.5722656,0.3847656-0.8476562s0.3710938-0.5195312,0.6230469-0.734375
		s0.5576172-0.3876953,0.9169922-0.5185547s0.7768555-0.1962891,1.2529297-0.1962891
		c0.4853516,0,0.9169922,0.0703125,1.2949219,0.2099609c0.3789062,0.140625,0.6953125,0.3369141,0.9521484,0.5888672
		s0.4521484,0.5507812,0.5878906,0.8955078c0.1357422,0.3457031,0.203125,0.7236328,0.203125,1.1337891
		c0,0.3740234-0.0537109,0.7236328-0.1611328,1.0507812c-0.1074219,0.3261719-0.2568359,0.6386719-0.4472656,0.9375
		c-0.1914062,0.2988281-0.4199219,0.5908203-0.6865234,0.875c-0.2666016,0.2851562-0.5625,0.5673828-0.8891602,0.8466797
		l-2.7299805,2.3798828h5.3056641V305.4375z"/>
</g>
</svg>
