<?xml version="1.0" encoding="utf-8"?>
<!-- Generator: Adobe Illustrator 18.1.1, SVG Export Plug-In . SVG Version: 6.00 Build 0)  -->
<svg version="1.1" id="Layer_1" xmlns="http://www.w3.org/2000/svg" xmlns:xlink="http://www.w3.org/1999/xlink" x="0px" y="0px"
	 width="36px" height="36px" viewBox="-481 283 36 36" enable-background="new -481 283 36 36" xml:space="preserve">
<title>Icon-3</title>
<desc>Created with Sketch.</desc>
<g id="Case-Study---Debenhams_1_">
	<g id="Desktop-HD_1_" transform="translate(-651.000000, -2149.000000)">
		<g id="Icon-5" transform="translate(652.000000, 2150.000000)">
			<g id="Oval-Copy-5">
				<g>
					<path fill="#FD433E" d="M-464,318c-9.925293,0-18-8.0751953-18-18c0-9.925293,8.074707-18,18-18c9.9248047,0,18,8.074707,18,18
						C-446,309.9248047-454.0751953,318-464,318z M-464,283c-9.3740234,0-17,7.6259766-17,17s7.6259766,17,17,17s17-7.6259766,17-17
						S-454.6259766,283-464,283z"/>
				</g>
			</g>
		</g>
	</g>
</g>
<g enable-background="new    ">
	<path fill="#FD433E" d="M-463.4077148,299.7958984c0.6816406,0,1.1923828-0.1513672,1.5327148-0.453125
		c0.3417969-0.3017578,0.5117188-0.6904297,0.5117188-1.1640625v-0.0976562c0-0.5205078-0.1660156-0.9111328-0.4970703-1.1708984
		c-0.331543-0.2607422-0.7631836-0.390625-1.2949219-0.390625c-0.5229492,0-0.9453125,0.1142578-1.2670898,0.3427734
		c-0.3222656,0.2294922-0.5859375,0.5302734-0.7910156,0.9033203l-0.8823242-0.671875
		c0.121582-0.1962891,0.2709961-0.3896484,0.4482422-0.5810547s0.3847656-0.3613281,0.6230469-0.5107422
		c0.237793-0.1494141,0.5131836-0.2714844,0.8256836-0.3642578c0.3129883-0.09375,0.6699219-0.140625,1.0712891-0.140625
		c0.4199219,0,0.8120117,0.0537109,1.1762695,0.1611328c0.3632812,0.1074219,0.6806641,0.265625,0.9511719,0.4755859
		c0.2714844,0.2089844,0.4833984,0.4677734,0.6376953,0.7753906c0.1533203,0.3076172,0.2314453,0.6572266,0.2314453,1.0478516
		c0,0.3173828-0.0498047,0.6015625-0.1474609,0.8525391c-0.0986328,0.2519531-0.2333984,0.4707031-0.40625,0.6572266
		s-0.3759766,0.3447266-0.6083984,0.4755859c-0.234375,0.1298828-0.4814453,0.2285156-0.7426758,0.2929688v0.0566406
		c0.2700195,0.0556641,0.5317383,0.1474609,0.7836914,0.2734375s0.4765625,0.2890625,0.671875,0.4902344
		c0.1972656,0.2011719,0.3525391,0.4443359,0.4697266,0.7294922c0.1162109,0.2851562,0.1748047,0.609375,0.1748047,0.9746094
		c0,0.4199219-0.0820312,0.8056641-0.2451172,1.15625s-0.3916016,0.6494141-0.6865234,0.8974609
		c-0.2929688,0.2470703-0.6484375,0.4414062-1.0634766,0.5820312c-0.4150391,0.1396484-0.875,0.2099609-1.3789062,0.2099609
		c-0.4291992,0-0.8095703-0.046875-1.1411133-0.1396484c-0.3310547-0.09375-0.625-0.2197266-0.8818359-0.3779297
		c-0.2568359-0.1591797-0.480957-0.3359375-0.671875-0.5322266c-0.1914062-0.1962891-0.3618164-0.4013672-0.5112305-0.6162109
		l0.8823242-0.671875c0.1303711,0.1962891,0.265625,0.3730469,0.4057617,0.5322266
		c0.1401367,0.1582031,0.3012695,0.2958984,0.4829102,0.4130859c0.1821289,0.1162109,0.3896484,0.2070312,0.6230469,0.2724609
		s0.5039062,0.0986328,0.8120117,0.0986328c0.6904297,0,1.2202148-0.1591797,1.5888672-0.4765625
		c0.3691406-0.3173828,0.5527344-0.7695312,0.5527344-1.3583984v-0.1113281c0-0.5791016-0.1796875-1.0263672-0.5390625-1.34375
		c-0.3588867-0.3173828-0.8979492-0.4765625-1.6166992-0.4765625h-1.1616211v-1.0214844H-463.4077148z"/>
</g>
</svg>
